<svg xmlns="http://www.w3.org/2000/svg" xmlns:xlink="http://www.w3.org/1999/xlink" version="1.1" class="marks" width="506" height="436" viewBox="0 0 506 436"><rect width="506" height="436" fill="#ffffff"/><g fill="none" stroke-miterlimit="10" transform="translate(44,73)"><g class="mark-group role-frame root" role="graphics-object" aria-roledescription="group mark container"><g transform="translate(0,0)"><path class="background" aria-hidden="true" d="M0,0h360v320h-360Z"/><g><g class="mark-group role-axis" role="graphics-symbol" aria-roledescription="axis" aria-label="X-axis for a discrete scale with 3 values: cnfast + template, cnfast, cn"><g transform="translate(0.5,320.5)"><path class="background" aria-hidden="true" d="M0,0h0v0h0Z" pointer-events="none"/><g><g class="mark-text role-axis-label" pointer-events="none"><text text-anchor="middle" transform="translate(59.5,19)" font-family="sans-serif" font-size="12px" font-weight="bold" fill="#111827" opacity="1">cnfast + template</text><text text-anchor="middle" transform="translate(179.5,19)" font-family="sans-serif" font-size="12px" font-weight="bold" fill="#111827" opacity="1">cnfast</text><text text-anchor="middle" transform="translate(299.5,19)" font-family="sans-serif" font-size="12px" font-weight="bold" fill="#111827" opacity="1">cn</text></g><g class="mark-rule role-axis-domain" pointer-events="none"><line transform="translate(0,0)" x2="360" y2="0" stroke="#e5e7eb" stroke-width="1" opacity="1"/></g></g><path class="foreground" aria-hidden="true" d="" pointer-events="none" display="none"/></g></g><g class="mark-group role-scope" role="graphics-object" aria-roledescription="group mark container"><g transform="translate(26.52,53.33333333333332)"><path class="background" aria-hidden="true" d="M6,0L60.959999999999994,0C64.271490146964,0,66.96,2.688509853036,66.96,6L66.96,266.6666666666667C66.96,266.6666666666667,66.96,266.6666666666667,66.96,266.6666666666667L0,266.6666666666667C0,266.6666666666667,0,266.6666666666667,0,266.6666666666667L0,6C0,2.688509853036,2.688509853036,0,6,0Z"/><g clip-path="url(#clip1)"><g class="mark-group role-scope" role="graphics-object" aria-roledescription="group mark container"><g transform="translate(0,-53.33333333333332)"><path class="background" aria-hidden="true" d="M0,0h66.96v0h-66.96Z"/><g><g class="mark-rect role-mark layer_0_marks" role="graphics-object" aria-roledescription="rect mark container"><path aria-label="form: cnfast + template; ops: 17422763.6035; color: #2563eb" role="graphics-symbol" aria-roledescription="bar" d="M0,53.33333333333332h66.96v266.6666666666667h-66.96Z" fill="#2563eb"/></g></g><path class="foreground" aria-hidden="true" d="" display="none"/></g></g></g><path class="foreground" aria-hidden="true" d="" display="none"/></g><g transform="translate(146.52,218.99945135052488)"><path class="background" aria-hidden="true" d="M6,0L60.959999999999994,0C64.271490146964,0,66.96,2.688509853036,66.96,6L66.96,101.00054864947512C66.96,101.00054864947512,66.96,101.00054864947512,66.96,101.00054864947512L0,101.00054864947512C0,101.00054864947512,0,101.00054864947512,0,101.00054864947512L0,6C0,2.688509853036,2.688509853036,0,6,0Z"/><g clip-path="url(#clip2)"><g class="mark-group role-scope" role="graphics-object" aria-roledescription="group mark container"><g transform="translate(0,-218.99945135052488)"><path class="background" aria-hidden="true" d="M0,0h66.96v0h-66.96Z"/><g><g class="mark-rect role-mark layer_0_marks" role="graphics-object" aria-roledescription="rect mark container"><path aria-label="form: cnfast; ops: 6598907.56105; color: #60a5fa" role="graphics-symbol" aria-roledescription="bar" d="M0,218.99945135052488h66.96v101.00054864947512h-66.96Z" fill="#60a5fa"/></g></g><path class="foreground" aria-hidden="true" d="" display="none"/></g></g></g><path class="foreground" aria-hidden="true" d="" display="none"/></g><g transform="translate(266.52,282.3513626887079)"><path class="background" aria-hidden="true" d="M6,0L60.959999999999994,0C64.271490146964,0,66.96,2.688509853036,66.96,6L66.96,37.64863731129208C66.96,37.64863731129208,66.96,37.64863731129208,66.96,37.64863731129208L0,37.64863731129208C0,37.64863731129208,0,37.64863731129208,0,37.64863731129208L0,6C0,2.688509853036,2.688509853036,0,6,0Z"/><g clip-path="url(#clip3)"><g class="mark-group role-scope" role="graphics-object" aria-roledescription="group mark container"><g transform="translate(0,-282.3513626887079)"><path class="background" aria-hidden="true" d="M0,0h66.96v0h-66.96Z"/><g><g class="mark-rect role-mark layer_0_marks" role="graphics-object" aria-roledescription="rect mark container"><path aria-label="form: cn; ops: 2459787.40451; color: #d1d5db" role="graphics-symbol" aria-roledescription="bar" d="M0,282.3513626887079h66.96v37.64863731129208h-66.96Z" fill="#d1d5db"/></g></g><path class="foreground" aria-hidden="true" d="" display="none"/></g></g></g><path class="foreground" aria-hidden="true" d="" display="none"/></g></g><g class="mark-text role-mark layer_1_marks" role="graphics-object" aria-roledescription="text mark container"><text aria-label="form: cnfast + template; ops: 17422763.6035; opsLabel: 17.4M ops/s" role="graphics-symbol" aria-roledescription="text mark" text-anchor="middle" transform="translate(60,28.33333333333332)" font-family="sans-serif" font-size="13px" font-weight="bold" fill="#111827">17.4M ops/s</text><text aria-label="form: cnfast; ops: 6598907.56105; opsLabel: 6.6M ops/s" role="graphics-symbol" aria-roledescription="text mark" text-anchor="middle" transform="translate(180,193.99945135052488)" font-family="sans-serif" font-size="13px" font-weight="bold" fill="#111827">6.6M ops/s</text><text aria-label="form: cn; ops: 2459787.40451; opsLabel: 2.5M ops/s" role="graphics-symbol" aria-roledescription="text mark" text-anchor="middle" transform="translate(300,257.3513626887079)" font-family="sans-serif" font-size="13px" font-weight="bold" fill="#111827">2.5M ops/s</text></g><g class="mark-text role-mark layer_2_marks" role="graphics-object" aria-roledescription="text mark container"><text aria-label="form: cnfast + template; ops: 17422763.6035; speedupLabel: 7.1x" role="graphics-symbol" aria-roledescription="text mark" text-anchor="middle" transform="translate(60,43.33333333333332)" font-family="sans-serif" font-size="12px" fill="#6b7280">7.1x</text><text aria-label="form: cnfast; ops: 6598907.56105; speedupLabel: 2.7x" role="graphics-symbol" aria-roledescription="text mark" text-anchor="middle" transform="translate(180,208.99945135052488)" font-family="sans-serif" font-size="12px" fill="#6b7280">2.7x</text><text aria-label="form: cn; ops: 2459787.40451; speedupLabel: 1.0x" role="graphics-symbol" aria-roledescription="text mark" text-anchor="middle" transform="translate(300,272.3513626887079)" font-family="sans-serif" font-size="12px" fill="#6b7280">1.0x</text></g><g class="mark-group role-title"><g transform="translate(-22,-50)"><path class="background" aria-hidden="true" d="M0,0h0v0h0Z" pointer-events="none"/><g><g class="mark-text role-title-text" role="graphics-symbol" aria-roledescription="title" aria-label="Title text 'cnfast on a re-rendering call site'" pointer-events="none"><text text-anchor="start" transform="translate(0,13)" font-family="sans-serif" font-size="17px" font-weight="bold" fill="#111827" opacity="1">cnfast on a re-rendering call site</text></g><g class="mark-text role-title-subtitle" role="graphics-symbol" aria-roledescription="subtitle" aria-label="Subtitle text 'operations per second, higher is faster'" pointer-events="none"><text text-anchor="start" transform="translate(0,29)" font-family="sans-serif" font-size="12px" fill="#6b7280" opacity="1">operations per second, higher is faster</text></g></g><path class="foreground" aria-hidden="true" d="" pointer-events="none" display="none"/></g></g></g><path class="foreground" aria-hidden="true" d="" display="none"/></g></g></g><defs><clipPath id="clip1"><path d="M6,0L60.959999999999994,0C64.271490146964,0,66.96,2.688509853036,66.96,6L66.96,266.6666666666667C66.96,266.6666666666667,66.96,266.6666666666667,66.96,266.6666666666667L0,266.6666666666667C0,266.6666666666667,0,266.6666666666667,0,266.6666666666667L0,6C0,2.688509853036,2.688509853036,0,6,0Z"/></clipPath><clipPath id="clip2"><path d="M6,0L60.959999999999994,0C64.271490146964,0,66.96,2.688509853036,66.96,6L66.96,101.00054864947512C66.96,101.00054864947512,66.96,101.00054864947512,66.96,101.00054864947512L0,101.00054864947512C0,101.00054864947512,0,101.00054864947512,0,101.00054864947512L0,6C0,2.688509853036,2.688509853036,0,6,0Z"/></clipPath><clipPath id="clip3"><path d="M6,0L60.959999999999994,0C64.271490146964,0,66.96,2.688509853036,66.96,6L66.96,37.64863731129208C66.96,37.64863731129208,66.96,37.64863731129208,66.96,37.64863731129208L0,37.64863731129208C0,37.64863731129208,0,37.64863731129208,0,37.64863731129208L0,6C0,2.688509853036,2.688509853036,0,6,0Z"/></clipPath></defs></svg>