<svg xmlns="http://www.w3.org/2000/svg" xmlns:xlink="http://www.w3.org/1999/xlink" version="1.1" class="marks" width="506" height="436" viewBox="0 0 506 436"><rect width="506" height="436" fill="#ffffff"/><g fill="none" stroke-miterlimit="10" transform="translate(22,73)"><g class="mark-group role-frame root" role="graphics-object" aria-roledescription="group mark container"><g transform="translate(0,0)"><path class="background" aria-hidden="true" d="M0,0h360v320h-360Z"/><g><g class="mark-group role-axis" role="graphics-symbol" aria-roledescription="axis" aria-label="X-axis for a discrete scale with 2 values: cnfast, cn"><g transform="translate(0.5,320.5)"><path class="background" aria-hidden="true" d="M0,0h0v0h0Z" pointer-events="none"/><g><g class="mark-text role-axis-label" pointer-events="none"><text text-anchor="middle" transform="translate(89.5,19)" font-family="sans-serif" font-size="12px" font-weight="bold" fill="#111827" opacity="1">cnfast</text><text text-anchor="middle" transform="translate(269.5,19)" font-family="sans-serif" font-size="12px" font-weight="bold" fill="#111827" opacity="1">cn</text></g><g class="mark-rule role-axis-domain" pointer-events="none"><line transform="translate(0,0)" x2="360" y2="0" stroke="#e5e7eb" stroke-width="1" opacity="1"/></g></g><path class="foreground" aria-hidden="true" d="" pointer-events="none" display="none"/></g></g><g class="mark-group role-scope" role="graphics-object" aria-roledescription="group mark container"><g transform="translate(39.78,53.33333333333332)"><path class="background" aria-hidden="true" d="M6,0L94.44,0C97.751490146964,0,100.44,2.688509853036,100.44,6L100.44,266.6666666666667C100.44,266.6666666666667,100.44,266.6666666666667,100.44,266.6666666666667L0,266.6666666666667C0,266.6666666666667,0,266.6666666666667,0,266.6666666666667L0,6C0,2.688509853036,2.688509853036,0,6,0Z"/><g clip-path="url(#clip1)"><g class="mark-group role-scope" role="graphics-object" aria-roledescription="group mark container"><g transform="translate(0,-53.33333333333332)"><path class="background" aria-hidden="true" d="M0,0h100.44v0h-100.44Z"/><g><g class="mark-rect role-mark layer_0_marks" role="graphics-object" aria-roledescription="rect mark container"><path aria-label="form: cnfast; ops: 11767893.0396; color: #60a5fa" role="graphics-symbol" aria-roledescription="bar" d="M0,53.33333333333332h100.44v266.6666666666667h-100.44Z" fill="#60a5fa"/></g></g><path class="foreground" aria-hidden="true" d="" display="none"/></g></g></g><path class="foreground" aria-hidden="true" d="" display="none"/></g><g transform="translate(219.78,246.54729435978552)"><path class="background" aria-hidden="true" d="M6,0L94.44,0C97.751490146964,0,100.44,2.688509853036,100.44,6L100.44,73.45270564021448C100.44,73.45270564021448,100.44,73.45270564021448,100.44,73.45270564021448L0,73.45270564021448C0,73.45270564021448,0,73.45270564021448,0,73.45270564021448L0,6C0,2.688509853036,2.688509853036,0,6,0Z"/><g clip-path="url(#clip2)"><g class="mark-group role-scope" role="graphics-object" aria-roledescription="group mark container"><g transform="translate(0,-246.54729435978552)"><path class="background" aria-hidden="true" d="M0,0h100.44v0h-100.44Z"/><g><g class="mark-rect role-mark layer_0_marks" role="graphics-object" aria-roledescription="rect mark container"><path aria-label="form: cn; ops: 3241438.43793; color: #d1d5db" role="graphics-symbol" aria-roledescription="bar" d="M0,246.54729435978552h100.44v73.45270564021448h-100.44Z" fill="#d1d5db"/></g></g><path class="foreground" aria-hidden="true" d="" display="none"/></g></g></g><path class="foreground" aria-hidden="true" d="" display="none"/></g></g><g class="mark-text role-mark layer_1_marks" role="graphics-object" aria-roledescription="text mark container"><text aria-label="form: cnfast; ops: 11767893.0396; opsLabel: 11.8M ops/s" role="graphics-symbol" aria-roledescription="text mark" text-anchor="middle" transform="translate(90,28.33333333333332)" font-family="sans-serif" font-size="13px" font-weight="bold" fill="#111827">11.8M ops/s</text><text aria-label="form: cn; ops: 3241438.43793; opsLabel: 3.2M ops/s" role="graphics-symbol" aria-roledescription="text mark" text-anchor="middle" transform="translate(270,221.54729435978552)" font-family="sans-serif" font-size="13px" font-weight="bold" fill="#111827">3.2M ops/s</text></g><g class="mark-text role-mark layer_2_marks" role="graphics-object" aria-roledescription="text mark container"><text aria-label="form: cnfast; ops: 11767893.0396; speedupLabel: 3.6x" role="graphics-symbol" aria-roledescription="text mark" text-anchor="middle" transform="translate(90,43.33333333333332)" font-family="sans-serif" font-size="12px" fill="#6b7280">3.6x</text><text aria-label="form: cn; ops: 3241438.43793; speedupLabel: 1.0x" role="graphics-symbol" aria-roledescription="text mark" text-anchor="middle" transform="translate(270,236.54729435978552)" font-family="sans-serif" font-size="12px" fill="#6b7280">1.0x</text></g><g class="mark-group role-title"><g transform="translate(0,-50)"><path class="background" aria-hidden="true" d="M0,0h0v0h0Z" pointer-events="none"/><g><g class="mark-text role-title-text" role="graphics-symbol" aria-roledescription="title" aria-label="Title text 'cnfast on a re-rendering call site'" pointer-events="none"><text text-anchor="start" transform="translate(0,13)" font-family="sans-serif" font-size="17px" font-weight="bold" fill="#111827" opacity="1">cnfast on a re-rendering call site</text></g><g class="mark-text role-title-subtitle" role="graphics-symbol" aria-roledescription="subtitle" aria-label="Subtitle text 'operations per second, higher is faster'" pointer-events="none"><text text-anchor="start" transform="translate(0,29)" font-family="sans-serif" font-size="12px" fill="#6b7280" opacity="1">operations per second, higher is faster</text></g></g><path class="foreground" aria-hidden="true" d="" pointer-events="none" display="none"/></g></g></g><path class="foreground" aria-hidden="true" d="" display="none"/></g></g></g><defs><clipPath id="clip1"><path d="M6,0L94.44,0C97.751490146964,0,100.44,2.688509853036,100.44,6L100.44,266.6666666666667C100.44,266.6666666666667,100.44,266.6666666666667,100.44,266.6666666666667L0,266.6666666666667C0,266.6666666666667,0,266.6666666666667,0,266.6666666666667L0,6C0,2.688509853036,2.688509853036,0,6,0Z"/></clipPath><clipPath id="clip2"><path d="M6,0L94.44,0C97.751490146964,0,100.44,2.688509853036,100.44,6L100.44,73.45270564021448C100.44,73.45270564021448,100.44,73.45270564021448,100.44,73.45270564021448L0,73.45270564021448C0,73.45270564021448,0,73.45270564021448,0,73.45270564021448L0,6C0,2.688509853036,2.688509853036,0,6,0Z"/></clipPath></defs></svg>